<mxfile host="app.diagrams.net" modified="2023-05-31T13:20:48.428Z" agent="Mozilla/5.0 (Windows NT 10.0; Win64; x64) AppleWebKit/537.36 (KHTML, like Gecko) Chrome/113.0.0.0 Safari/537.36 Edg/113.0.1774.57" etag="QExAN7Q1JGBT2Dlav_GG" version="21.3.5" type="github">
  <diagram name="第 1 页" id="6yCeiEC_yYgg5rmZecg1">
    <mxGraphModel dx="1293" dy="785" grid="1" gridSize="10" guides="1" tooltips="1" connect="1" arrows="1" fold="1" page="1" pageScale="1" pageWidth="827" pageHeight="1169" math="1" shadow="0">
      <root>
        <mxCell id="0" />
        <mxCell id="1" parent="0" />
        <mxCell id="372Kzp2kU9iPumznmMCR-118" value="" style="endArrow=none;html=1;rounded=0;strokeWidth=2;fillColor=#1ba1e2;strokeColor=#006EAF;exitX=1;exitY=0;exitDx=0;exitDy=0;" parent="1" source="372Kzp2kU9iPumznmMCR-98" edge="1">
          <mxGeometry width="50" height="50" relative="1" as="geometry">
            <mxPoint x="217.5" y="869" as="sourcePoint" />
            <mxPoint x="630" y="760" as="targetPoint" />
          </mxGeometry>
        </mxCell>
        <mxCell id="372Kzp2kU9iPumznmMCR-113" value="" style="endArrow=none;html=1;rounded=0;strokeWidth=2;fillColor=#1ba1e2;strokeColor=#006EAF;exitX=1;exitY=1;exitDx=0;exitDy=0;" parent="1" source="372Kzp2kU9iPumznmMCR-98" edge="1">
          <mxGeometry width="50" height="50" relative="1" as="geometry">
            <mxPoint x="32.5" y="904" as="sourcePoint" />
            <mxPoint x="370" y="1030" as="targetPoint" />
          </mxGeometry>
        </mxCell>
        <mxCell id="372Kzp2kU9iPumznmMCR-80" value="" style="endArrow=none;html=1;rounded=0;strokeWidth=2;fillColor=#1ba1e2;strokeColor=#006EAF;exitX=1;exitY=1;exitDx=0;exitDy=0;" parent="1" source="372Kzp2kU9iPumznmMCR-58" edge="1">
          <mxGeometry width="50" height="50" relative="1" as="geometry">
            <mxPoint x="411.5" y="700" as="sourcePoint" />
            <mxPoint x="337.5" y="710" as="targetPoint" />
          </mxGeometry>
        </mxCell>
        <mxCell id="372Kzp2kU9iPumznmMCR-82" value="" style="endArrow=none;html=1;rounded=0;strokeWidth=2;fillColor=#1ba1e2;strokeColor=#006EAF;exitX=1;exitY=0;exitDx=0;exitDy=0;" parent="1" source="372Kzp2kU9iPumznmMCR-58" edge="1">
          <mxGeometry width="50" height="50" relative="1" as="geometry">
            <mxPoint x="175.5" y="540" as="sourcePoint" />
            <mxPoint x="507.5" y="480" as="targetPoint" />
          </mxGeometry>
        </mxCell>
        <mxCell id="372Kzp2kU9iPumznmMCR-36" value="" style="rounded=0;whiteSpace=wrap;html=1;fillColor=none;strokeWidth=2;" parent="1" vertex="1">
          <mxGeometry x="120" y="430" width="560" height="290" as="geometry" />
        </mxCell>
        <mxCell id="372Kzp2kU9iPumznmMCR-41" value="" style="ellipse;whiteSpace=wrap;html=1;aspect=fixed;fillColor=#1ba1e2;fontColor=#ffffff;strokeColor=none;" parent="1" vertex="1">
          <mxGeometry x="292.5" y="670" width="15" height="15" as="geometry" />
        </mxCell>
        <mxCell id="372Kzp2kU9iPumznmMCR-42" value="" style="ellipse;whiteSpace=wrap;html=1;aspect=fixed;fillColor=none;fontColor=#ffffff;strokeColor=#000000;" parent="1" vertex="1">
          <mxGeometry x="160.5" y="605" width="15" height="15" as="geometry" />
        </mxCell>
        <mxCell id="372Kzp2kU9iPumznmMCR-43" value="" style="ellipse;whiteSpace=wrap;html=1;aspect=fixed;fillColor=none;fontColor=#ffffff;strokeColor=#000000;" parent="1" vertex="1">
          <mxGeometry x="168.5" y="661" width="15" height="15" as="geometry" />
        </mxCell>
        <mxCell id="372Kzp2kU9iPumznmMCR-44" value="" style="ellipse;whiteSpace=wrap;html=1;aspect=fixed;fillColor=none;fontColor=#ffffff;strokeColor=#000000;" parent="1" vertex="1">
          <mxGeometry x="352.5" y="640" width="15" height="15" as="geometry" />
        </mxCell>
        <mxCell id="372Kzp2kU9iPumznmMCR-45" value="" style="ellipse;whiteSpace=wrap;html=1;aspect=fixed;fillColor=none;fontColor=#ffffff;strokeColor=#000000;" parent="1" vertex="1">
          <mxGeometry x="403.5" y="574" width="15" height="15" as="geometry" />
        </mxCell>
        <mxCell id="372Kzp2kU9iPumznmMCR-50" value="" style="endArrow=open;html=1;rounded=0;dashed=1;endFill=0;exitX=1;exitY=0.5;exitDx=0;exitDy=0;entryX=0;entryY=1;entryDx=0;entryDy=0;" parent="1" source="372Kzp2kU9iPumznmMCR-41" target="372Kzp2kU9iPumznmMCR-44" edge="1">
          <mxGeometry width="50" height="50" relative="1" as="geometry">
            <mxPoint x="277.5" y="599" as="sourcePoint" />
            <mxPoint x="336.5" y="605" as="targetPoint" />
          </mxGeometry>
        </mxCell>
        <mxCell id="372Kzp2kU9iPumznmMCR-51" value="" style="endArrow=open;html=1;rounded=0;dashed=1;endFill=0;exitX=1;exitY=0;exitDx=0;exitDy=0;entryX=0;entryY=1;entryDx=0;entryDy=0;" parent="1" source="372Kzp2kU9iPumznmMCR-44" target="372Kzp2kU9iPumznmMCR-45" edge="1">
          <mxGeometry width="50" height="50" relative="1" as="geometry">
            <mxPoint x="347.5" y="597.5" as="sourcePoint" />
            <mxPoint x="394.5" y="577.5" as="targetPoint" />
          </mxGeometry>
        </mxCell>
        <mxCell id="372Kzp2kU9iPumznmMCR-52" value="" style="endArrow=open;html=1;rounded=0;dashed=1;endFill=0;exitX=0.5;exitY=0;exitDx=0;exitDy=0;entryX=0.5;entryY=1;entryDx=0;entryDy=0;" parent="1" source="372Kzp2kU9iPumznmMCR-45" target="372Kzp2kU9iPumznmMCR-54" edge="1">
          <mxGeometry width="50" height="50" relative="1" as="geometry">
            <mxPoint x="411.5" y="557.5" as="sourcePoint" />
            <mxPoint x="475" y="535" as="targetPoint" />
          </mxGeometry>
        </mxCell>
        <mxCell id="372Kzp2kU9iPumznmMCR-54" value="" style="ellipse;whiteSpace=wrap;html=1;aspect=fixed;fillColor=#1ba1e2;fontColor=#ffffff;strokeColor=none;" parent="1" vertex="1">
          <mxGeometry x="418.5" y="490" width="15" height="15" as="geometry" />
        </mxCell>
        <mxCell id="372Kzp2kU9iPumznmMCR-58" value="" style="ellipse;whiteSpace=wrap;html=1;aspect=fixed;fillColor=#1ba1e2;fontColor=#ffffff;strokeColor=none;" parent="1" vertex="1">
          <mxGeometry x="147.5" y="540" width="15" height="15" as="geometry" />
        </mxCell>
        <mxCell id="372Kzp2kU9iPumznmMCR-71" value="" style="ellipse;whiteSpace=wrap;html=1;aspect=fixed;fillColor=none;fontColor=#ffffff;strokeColor=#000000;" parent="1" vertex="1">
          <mxGeometry x="217.5" y="685" width="15" height="15" as="geometry" />
        </mxCell>
        <mxCell id="372Kzp2kU9iPumznmMCR-73" value="" style="endArrow=none;html=1;rounded=0;strokeWidth=2;fillColor=#1ba1e2;strokeColor=#006EAF;dashed=1;entryX=0;entryY=1;entryDx=0;entryDy=0;exitX=1;exitY=0;exitDx=0;exitDy=0;" parent="1" source="372Kzp2kU9iPumznmMCR-41" target="372Kzp2kU9iPumznmMCR-54" edge="1">
          <mxGeometry width="50" height="50" relative="1" as="geometry">
            <mxPoint x="337.5" y="589" as="sourcePoint" />
            <mxPoint x="541.5" y="380" as="targetPoint" />
          </mxGeometry>
        </mxCell>
        <mxCell id="372Kzp2kU9iPumznmMCR-75" value="" style="endArrow=open;html=1;rounded=0;dashed=1;endFill=0;exitX=0.5;exitY=1;exitDx=0;exitDy=0;entryX=0.5;entryY=0;entryDx=0;entryDy=0;" parent="1" source="372Kzp2kU9iPumznmMCR-58" target="372Kzp2kU9iPumznmMCR-42" edge="1">
          <mxGeometry width="50" height="50" relative="1" as="geometry">
            <mxPoint x="175.5" y="565" as="sourcePoint" />
            <mxPoint x="232.5" y="530" as="targetPoint" />
          </mxGeometry>
        </mxCell>
        <mxCell id="372Kzp2kU9iPumznmMCR-76" value="" style="endArrow=open;html=1;rounded=0;dashed=1;endFill=0;exitX=0.5;exitY=1;exitDx=0;exitDy=0;entryX=0.5;entryY=0;entryDx=0;entryDy=0;" parent="1" source="372Kzp2kU9iPumznmMCR-42" target="372Kzp2kU9iPumznmMCR-43" edge="1">
          <mxGeometry width="50" height="50" relative="1" as="geometry">
            <mxPoint x="147.5" y="626" as="sourcePoint" />
            <mxPoint x="160.5" y="676" as="targetPoint" />
          </mxGeometry>
        </mxCell>
        <mxCell id="372Kzp2kU9iPumznmMCR-77" value="" style="endArrow=open;html=1;rounded=0;dashed=1;endFill=0;exitX=1;exitY=1;exitDx=0;exitDy=0;entryX=0;entryY=0.5;entryDx=0;entryDy=0;" parent="1" source="372Kzp2kU9iPumznmMCR-43" target="372Kzp2kU9iPumznmMCR-71" edge="1">
          <mxGeometry width="50" height="50" relative="1" as="geometry">
            <mxPoint x="183.5" y="685" as="sourcePoint" />
            <mxPoint x="196.5" y="735" as="targetPoint" />
          </mxGeometry>
        </mxCell>
        <mxCell id="372Kzp2kU9iPumznmMCR-79" value="" style="endArrow=open;html=1;rounded=0;dashed=1;endFill=0;exitX=1;exitY=0.5;exitDx=0;exitDy=0;entryX=0;entryY=1;entryDx=0;entryDy=0;" parent="1" source="372Kzp2kU9iPumznmMCR-71" target="372Kzp2kU9iPumznmMCR-41" edge="1">
          <mxGeometry width="50" height="50" relative="1" as="geometry">
            <mxPoint x="261.5" y="720" as="sourcePoint" />
            <mxPoint x="318.5" y="685" as="targetPoint" />
          </mxGeometry>
        </mxCell>
        <mxCell id="372Kzp2kU9iPumznmMCR-84" value="" style="endArrow=none;html=1;rounded=0;strokeWidth=2;fillColor=#1ba1e2;strokeColor=#006EAF;" parent="1" source="372Kzp2kU9iPumznmMCR-131" edge="1">
          <mxGeometry width="50" height="50" relative="1" as="geometry">
            <mxPoint x="338.5" y="710" as="sourcePoint" />
            <mxPoint x="507.5" y="480" as="targetPoint" />
          </mxGeometry>
        </mxCell>
        <mxCell id="372Kzp2kU9iPumznmMCR-87" value="" style="endArrow=none;html=1;strokeWidth=1.5;curved=1;" parent="1" edge="1">
          <mxGeometry width="50" height="50" relative="1" as="geometry">
            <mxPoint x="217.5" y="1040" as="sourcePoint" />
            <mxPoint x="240" y="750" as="targetPoint" />
            <Array as="points">
              <mxPoint x="307.5" y="949" />
              <mxPoint x="275" y="782.5" />
            </Array>
          </mxGeometry>
        </mxCell>
        <mxCell id="372Kzp2kU9iPumznmMCR-88" value="" style="rounded=0;whiteSpace=wrap;html=1;fillColor=none;strokeWidth=2;" parent="1" vertex="1">
          <mxGeometry x="120" y="750" width="560" height="290" as="geometry" />
        </mxCell>
        <mxCell id="372Kzp2kU9iPumznmMCR-90" value="" style="ellipse;whiteSpace=wrap;html=1;aspect=fixed;fillColor=none;fontColor=#ffffff;strokeColor=#000000;" parent="1" vertex="1">
          <mxGeometry x="183.5" y="920" width="15" height="15" as="geometry" />
        </mxCell>
        <mxCell id="372Kzp2kU9iPumznmMCR-91" value="" style="ellipse;whiteSpace=wrap;html=1;aspect=fixed;fillColor=none;fontColor=#ffffff;strokeColor=#000000;" parent="1" vertex="1">
          <mxGeometry x="230" y="975" width="15" height="15" as="geometry" />
        </mxCell>
        <mxCell id="372Kzp2kU9iPumznmMCR-92" value="" style="ellipse;whiteSpace=wrap;html=1;aspect=fixed;fillColor=none;fontColor=#ffffff;strokeColor=#000000;" parent="1" vertex="1">
          <mxGeometry x="352.5" y="960" width="15" height="15" as="geometry" />
        </mxCell>
        <mxCell id="372Kzp2kU9iPumznmMCR-93" value="" style="ellipse;whiteSpace=wrap;html=1;aspect=fixed;fillColor=none;fontColor=#ffffff;strokeColor=#000000;" parent="1" vertex="1">
          <mxGeometry x="414" y="915" width="15" height="15" as="geometry" />
        </mxCell>
        <mxCell id="372Kzp2kU9iPumznmMCR-94" value="" style="endArrow=open;html=1;rounded=0;dashed=1;endFill=0;exitX=1;exitY=0.5;exitDx=0;exitDy=0;entryX=0;entryY=1;entryDx=0;entryDy=0;" parent="1" source="372Kzp2kU9iPumznmMCR-89" target="372Kzp2kU9iPumznmMCR-92" edge="1">
          <mxGeometry width="50" height="50" relative="1" as="geometry">
            <mxPoint x="277.5" y="919" as="sourcePoint" />
            <mxPoint x="336.5" y="925" as="targetPoint" />
          </mxGeometry>
        </mxCell>
        <mxCell id="372Kzp2kU9iPumznmMCR-95" value="" style="endArrow=open;html=1;rounded=0;dashed=1;endFill=0;exitX=1;exitY=0;exitDx=0;exitDy=0;entryX=0;entryY=1;entryDx=0;entryDy=0;" parent="1" source="372Kzp2kU9iPumznmMCR-92" target="372Kzp2kU9iPumznmMCR-93" edge="1">
          <mxGeometry width="50" height="50" relative="1" as="geometry">
            <mxPoint x="347.5" y="917.5" as="sourcePoint" />
            <mxPoint x="394.5" y="897.5" as="targetPoint" />
          </mxGeometry>
        </mxCell>
        <mxCell id="372Kzp2kU9iPumznmMCR-98" value="" style="ellipse;whiteSpace=wrap;html=1;aspect=fixed;fillColor=#1ba1e2;fontColor=#ffffff;strokeColor=none;" parent="1" vertex="1">
          <mxGeometry x="147.5" y="860" width="15" height="15" as="geometry" />
        </mxCell>
        <mxCell id="372Kzp2kU9iPumznmMCR-100" value="" style="endArrow=none;html=1;rounded=0;strokeWidth=2;fillColor=#1ba1e2;strokeColor=#006EAF;dashed=1;entryX=0;entryY=1;entryDx=0;entryDy=0;exitX=1;exitY=0;exitDx=0;exitDy=0;" parent="1" source="372Kzp2kU9iPumznmMCR-89" target="372Kzp2kU9iPumznmMCR-97" edge="1">
          <mxGeometry width="50" height="50" relative="1" as="geometry">
            <mxPoint x="337.5" y="909" as="sourcePoint" />
            <mxPoint x="541.5" y="700" as="targetPoint" />
          </mxGeometry>
        </mxCell>
        <mxCell id="372Kzp2kU9iPumznmMCR-101" value="" style="endArrow=open;html=1;rounded=0;dashed=1;endFill=0;exitX=1;exitY=1;exitDx=0;exitDy=0;entryX=0;entryY=0;entryDx=0;entryDy=0;" parent="1" source="372Kzp2kU9iPumznmMCR-98" target="372Kzp2kU9iPumznmMCR-90" edge="1">
          <mxGeometry width="50" height="50" relative="1" as="geometry">
            <mxPoint x="175.5" y="885" as="sourcePoint" />
            <mxPoint x="232.5" y="850" as="targetPoint" />
          </mxGeometry>
        </mxCell>
        <mxCell id="372Kzp2kU9iPumznmMCR-102" value="" style="endArrow=open;html=1;rounded=0;dashed=1;endFill=0;entryX=0;entryY=0;entryDx=0;entryDy=0;exitX=1;exitY=1;exitDx=0;exitDy=0;" parent="1" source="372Kzp2kU9iPumznmMCR-90" target="372Kzp2kU9iPumznmMCR-91" edge="1">
          <mxGeometry width="50" height="50" relative="1" as="geometry">
            <mxPoint x="218" y="930" as="sourcePoint" />
            <mxPoint x="160.5" y="996" as="targetPoint" />
          </mxGeometry>
        </mxCell>
        <mxCell id="372Kzp2kU9iPumznmMCR-104" value="" style="endArrow=open;html=1;rounded=0;dashed=1;endFill=0;exitX=1;exitY=0.5;exitDx=0;exitDy=0;entryX=0;entryY=1;entryDx=0;entryDy=0;" parent="1" source="372Kzp2kU9iPumznmMCR-91" target="372Kzp2kU9iPumznmMCR-89" edge="1">
          <mxGeometry width="50" height="50" relative="1" as="geometry">
            <mxPoint x="232.5" y="1012.4999999999998" as="sourcePoint" />
            <mxPoint x="318.5" y="1005" as="targetPoint" />
          </mxGeometry>
        </mxCell>
        <mxCell id="372Kzp2kU9iPumznmMCR-108" value="" style="ellipse;whiteSpace=wrap;html=1;aspect=fixed;fillColor=none;fontColor=#ffffff;strokeColor=#000000;" parent="1" vertex="1">
          <mxGeometry x="455" y="850" width="15" height="15" as="geometry" />
        </mxCell>
        <mxCell id="372Kzp2kU9iPumznmMCR-109" value="" style="endArrow=open;html=1;rounded=0;dashed=1;endFill=0;exitX=1;exitY=0;exitDx=0;exitDy=0;entryX=0.5;entryY=1;entryDx=0;entryDy=0;" parent="1" source="372Kzp2kU9iPumznmMCR-93" target="372Kzp2kU9iPumznmMCR-108" edge="1">
          <mxGeometry width="50" height="50" relative="1" as="geometry">
            <mxPoint x="437" y="915" as="sourcePoint" />
            <mxPoint x="488" y="881" as="targetPoint" />
          </mxGeometry>
        </mxCell>
        <mxCell id="372Kzp2kU9iPumznmMCR-110" value="" style="endArrow=open;html=1;rounded=0;dashed=1;endFill=0;exitX=1;exitY=0;exitDx=0;exitDy=0;entryX=0.5;entryY=1;entryDx=0;entryDy=0;" parent="1" source="372Kzp2kU9iPumznmMCR-108" target="372Kzp2kU9iPumznmMCR-97" edge="1">
          <mxGeometry width="50" height="50" relative="1" as="geometry">
            <mxPoint x="479" y="850" as="sourcePoint" />
            <mxPoint x="515" y="798" as="targetPoint" />
          </mxGeometry>
        </mxCell>
        <mxCell id="372Kzp2kU9iPumznmMCR-89" value="" style="ellipse;whiteSpace=wrap;html=1;aspect=fixed;fillColor=#1ba1e2;fontColor=#ffffff;strokeColor=none;" parent="1" vertex="1">
          <mxGeometry x="295" y="970" width="15" height="15" as="geometry" />
        </mxCell>
        <mxCell id="372Kzp2kU9iPumznmMCR-97" value="" style="ellipse;whiteSpace=wrap;html=1;aspect=fixed;fillColor=#1ba1e2;fontColor=#ffffff;strokeColor=none;" parent="1" vertex="1">
          <mxGeometry x="484" y="780" width="15" height="15" as="geometry" />
        </mxCell>
        <mxCell id="372Kzp2kU9iPumznmMCR-117" value="" style="endArrow=none;html=1;rounded=0;strokeWidth=2;fillColor=#1ba1e2;strokeColor=#006EAF;" parent="1" edge="1">
          <mxGeometry width="50" height="50" relative="1" as="geometry">
            <mxPoint x="370" y="1029" as="sourcePoint" />
            <mxPoint x="630" y="760" as="targetPoint" />
          </mxGeometry>
        </mxCell>
        <mxCell id="372Kzp2kU9iPumznmMCR-119" value="" style="endArrow=none;html=1;strokeWidth=1.5;curved=1;" parent="1" edge="1">
          <mxGeometry width="50" height="50" relative="1" as="geometry">
            <mxPoint x="215" y="720" as="sourcePoint" />
            <mxPoint x="237.5" y="430" as="targetPoint" />
            <Array as="points">
              <mxPoint x="305" y="629" />
              <mxPoint x="272.5" y="462.5" />
            </Array>
          </mxGeometry>
        </mxCell>
        <mxCell id="372Kzp2kU9iPumznmMCR-121" value="&lt;font style=&quot;font-size: 16px;&quot;&gt;非对抗空间&lt;/font&gt;" style="text;html=1;strokeColor=none;fillColor=none;align=center;verticalAlign=middle;whiteSpace=wrap;rounded=0;" parent="1" vertex="1">
          <mxGeometry x="120" y="700" width="87.5" height="20" as="geometry" />
        </mxCell>
        <mxCell id="372Kzp2kU9iPumznmMCR-122" value="&lt;font style=&quot;font-size: 16px;&quot;&gt;非对抗空间&lt;/font&gt;" style="text;html=1;strokeColor=none;fillColor=none;align=center;verticalAlign=middle;whiteSpace=wrap;rounded=0;" parent="1" vertex="1">
          <mxGeometry x="120" y="1020" width="87.5" height="20" as="geometry" />
        </mxCell>
        <mxCell id="372Kzp2kU9iPumznmMCR-123" value="&lt;font style=&quot;font-size: 16px;&quot;&gt;对抗空间&lt;/font&gt;" style="text;html=1;strokeColor=none;fillColor=none;align=center;verticalAlign=middle;whiteSpace=wrap;rounded=0;" parent="1" vertex="1">
          <mxGeometry x="610" y="700" width="70" height="20" as="geometry" />
        </mxCell>
        <mxCell id="372Kzp2kU9iPumznmMCR-124" value="&lt;font style=&quot;font-size: 16px;&quot;&gt;对抗空间&lt;/font&gt;" style="text;html=1;strokeColor=none;fillColor=none;align=center;verticalAlign=middle;whiteSpace=wrap;rounded=0;" parent="1" vertex="1">
          <mxGeometry x="610" y="1020" width="70" height="20" as="geometry" />
        </mxCell>
        <mxCell id="372Kzp2kU9iPumznmMCR-125" value="&lt;font style=&quot;font-size: 18px;&quot;&gt;决策边界&lt;/font&gt;" style="text;html=1;strokeColor=none;fillColor=none;align=center;verticalAlign=middle;whiteSpace=wrap;rounded=0;" parent="1" vertex="1">
          <mxGeometry x="275" y="430" width="80" height="30" as="geometry" />
        </mxCell>
        <mxCell id="372Kzp2kU9iPumznmMCR-126" value="&lt;font style=&quot;font-size: 18px;&quot;&gt;决策边界&lt;/font&gt;" style="text;html=1;strokeColor=none;fillColor=none;align=center;verticalAlign=middle;whiteSpace=wrap;rounded=0;" parent="1" vertex="1">
          <mxGeometry x="272.5" y="750" width="80" height="30" as="geometry" />
        </mxCell>
        <mxCell id="372Kzp2kU9iPumznmMCR-127" value="&lt;font style=&quot;font-size: 14px;&quot;&gt;$$(x, [0.0, 1.0])$$&lt;/font&gt;" style="text;html=1;strokeColor=none;fillColor=none;align=center;verticalAlign=middle;whiteSpace=wrap;rounded=0;" parent="1" vertex="1">
          <mxGeometry x="127.5" y="510" width="80" height="19" as="geometry" />
        </mxCell>
        <mxCell id="372Kzp2kU9iPumznmMCR-128" value="&lt;font style=&quot;font-size: 14px;&quot;&gt;$$(x, [0.0, 1.0])$$&lt;/font&gt;" style="text;html=1;strokeColor=none;fillColor=none;align=center;verticalAlign=middle;whiteSpace=wrap;rounded=0;" parent="1" vertex="1">
          <mxGeometry x="124.75" y="831" width="80" height="19" as="geometry" />
        </mxCell>
        <mxCell id="372Kzp2kU9iPumznmMCR-130" value="" style="ellipse;whiteSpace=wrap;html=1;aspect=fixed;fillColor=#e51400;fontColor=#ffffff;strokeColor=none;" parent="1" vertex="1">
          <mxGeometry x="295" y="577" width="15" height="15" as="geometry" />
        </mxCell>
        <mxCell id="372Kzp2kU9iPumznmMCR-132" value="" style="ellipse;whiteSpace=wrap;html=1;aspect=fixed;fillColor=#e51400;fontColor=#ffffff;strokeColor=none;" parent="1" vertex="1">
          <mxGeometry x="483" y="895.5" width="15" height="15" as="geometry" />
        </mxCell>
        <mxCell id="372Kzp2kU9iPumznmMCR-133" value="" style="ellipse;whiteSpace=wrap;html=1;aspect=fixed;fillColor=#e51400;fontColor=#ffffff;strokeColor=none;" parent="1" vertex="1">
          <mxGeometry x="331.5" y="878" width="15" height="15" as="geometry" />
        </mxCell>
        <mxCell id="372Kzp2kU9iPumznmMCR-134" value="" style="endArrow=none;html=1;rounded=0;strokeWidth=2;fillColor=#1ba1e2;strokeColor=#006EAF;" parent="1" target="372Kzp2kU9iPumznmMCR-131" edge="1">
          <mxGeometry width="50" height="50" relative="1" as="geometry">
            <mxPoint x="338.5" y="710" as="sourcePoint" />
            <mxPoint x="507.5" y="480" as="targetPoint" />
          </mxGeometry>
        </mxCell>
        <mxCell id="372Kzp2kU9iPumznmMCR-131" value="" style="ellipse;whiteSpace=wrap;html=1;aspect=fixed;fillColor=#e51400;fontColor=#ffffff;strokeColor=none;" parent="1" vertex="1">
          <mxGeometry x="402.5" y="605" width="15" height="15" as="geometry" />
        </mxCell>
        <mxCell id="372Kzp2kU9iPumznmMCR-135" value="" style="endArrow=classicThin;html=1;rounded=0;strokeWidth=2;fillColor=#1ba1e2;strokeColor=#E51400;dashed=1;entryX=0;entryY=0.5;entryDx=0;entryDy=0;exitX=1;exitY=0.5;exitDx=0;exitDy=0;endFill=1;" parent="1" source="372Kzp2kU9iPumznmMCR-58" target="372Kzp2kU9iPumznmMCR-131" edge="1">
          <mxGeometry width="50" height="50" relative="1" as="geometry">
            <mxPoint x="315" y="682" as="sourcePoint" />
            <mxPoint x="431" y="513" as="targetPoint" />
          </mxGeometry>
        </mxCell>
        <mxCell id="372Kzp2kU9iPumznmMCR-137" value="" style="endArrow=classicThin;html=1;rounded=0;strokeWidth=2;fillColor=#1ba1e2;strokeColor=#E51400;dashed=1;entryX=0;entryY=0.5;entryDx=0;entryDy=0;exitX=1;exitY=0.5;exitDx=0;exitDy=0;endFill=1;" parent="1" source="372Kzp2kU9iPumznmMCR-98" target="372Kzp2kU9iPumznmMCR-132" edge="1">
          <mxGeometry width="50" height="50" relative="1" as="geometry">
            <mxPoint x="175.5" y="890" as="sourcePoint" />
            <mxPoint x="415.5" y="955" as="targetPoint" />
          </mxGeometry>
        </mxCell>
        <mxCell id="372Kzp2kU9iPumznmMCR-138" value="&lt;font style=&quot;font-size: 14px;&quot;&gt;$$(\hat{x}^1, [0.2, 0.8])$$&lt;/font&gt;" style="text;html=1;strokeColor=none;fillColor=none;align=center;verticalAlign=middle;whiteSpace=wrap;rounded=0;" parent="1" vertex="1">
          <mxGeometry x="301" y="554" width="80" height="20" as="geometry" />
        </mxCell>
        <mxCell id="372Kzp2kU9iPumznmMCR-139" value="&lt;font style=&quot;font-size: 14px;&quot;&gt;$$(\hat{x}^1, [0.2, 0.8])$$&lt;/font&gt;" style="text;html=1;strokeColor=none;fillColor=none;align=center;verticalAlign=middle;whiteSpace=wrap;rounded=0;" parent="1" vertex="1">
          <mxGeometry x="305" y="853" width="80" height="20" as="geometry" />
        </mxCell>
        <mxCell id="372Kzp2kU9iPumznmMCR-140" value="&lt;font style=&quot;font-size: 14px;&quot;&gt;$$(\hat{x}^2, [0.4, 0.6])$$&lt;/font&gt;" style="text;html=1;strokeColor=none;fillColor=none;align=center;verticalAlign=middle;whiteSpace=wrap;rounded=0;" parent="1" vertex="1">
          <mxGeometry x="429" y="605" width="80" height="15" as="geometry" />
        </mxCell>
        <mxCell id="372Kzp2kU9iPumznmMCR-141" value="&lt;font style=&quot;font-size: 14px;&quot;&gt;$$(\hat{x}^2, [0.4, 0.6])$$&lt;/font&gt;" style="text;html=1;strokeColor=none;fillColor=none;align=center;verticalAlign=middle;whiteSpace=wrap;rounded=0;" parent="1" vertex="1">
          <mxGeometry x="485" y="920" width="80" height="15" as="geometry" />
        </mxCell>
        <mxCell id="372Kzp2kU9iPumznmMCR-142" value="&lt;font style=&quot;font-size: 16px;&quot;&gt;$$x^{\prime}_f$$&lt;/font&gt;" style="text;html=1;strokeColor=none;fillColor=none;align=center;verticalAlign=middle;whiteSpace=wrap;rounded=0;" parent="1" vertex="1">
          <mxGeometry x="287.5" y="690" width="25" height="20" as="geometry" />
        </mxCell>
        <mxCell id="372Kzp2kU9iPumznmMCR-143" value="&lt;font style=&quot;font-size: 16px;&quot;&gt;$$x^{\prime}_e$$&lt;/font&gt;" style="text;html=1;strokeColor=none;fillColor=none;align=center;verticalAlign=middle;whiteSpace=wrap;rounded=0;" parent="1" vertex="1">
          <mxGeometry x="415" y="470" width="25" height="20" as="geometry" />
        </mxCell>
        <mxCell id="372Kzp2kU9iPumznmMCR-144" value="&lt;font style=&quot;font-size: 16px;&quot;&gt;$$x^{\prime}_f$$&lt;/font&gt;" style="text;html=1;strokeColor=none;fillColor=none;align=center;verticalAlign=middle;whiteSpace=wrap;rounded=0;" parent="1" vertex="1">
          <mxGeometry x="292.5" y="992" width="25" height="20" as="geometry" />
        </mxCell>
        <mxCell id="372Kzp2kU9iPumznmMCR-147" value="&lt;font style=&quot;font-size: 16px;&quot;&gt;$$x^{\prime}_e$$&lt;/font&gt;" style="text;html=1;strokeColor=none;fillColor=none;align=center;verticalAlign=middle;whiteSpace=wrap;rounded=0;" parent="1" vertex="1">
          <mxGeometry x="490" y="758" width="25" height="20" as="geometry" />
        </mxCell>
        <mxCell id="uce8TwfzmcumJvCa_uFS-1" value="&lt;span style=&quot;font-size: 16px;&quot;&gt;(a) 普通的攻击路径&lt;/span&gt;" style="text;html=1;strokeColor=none;fillColor=none;align=center;verticalAlign=middle;whiteSpace=wrap;rounded=0;" vertex="1" parent="1">
          <mxGeometry x="327.88" y="724" width="144.25" height="20" as="geometry" />
        </mxCell>
        <mxCell id="uce8TwfzmcumJvCa_uFS-2" value="&lt;span style=&quot;font-size: 16px;&quot;&gt;(b) 较好的攻击路径&lt;/span&gt;" style="text;html=1;strokeColor=none;fillColor=none;align=center;verticalAlign=middle;whiteSpace=wrap;rounded=0;" vertex="1" parent="1">
          <mxGeometry x="335.75" y="1044" width="144.25" height="20" as="geometry" />
        </mxCell>
      </root>
    </mxGraphModel>
  </diagram>
</mxfile>
